<svg width="1003" height="500" viewBox="0 0 1003 500" fill="none" xmlns="http://www.w3.org/2000/svg">
<mask id="mask0_182_83" style="mask-type:luminance" maskUnits="userSpaceOnUse" x="27" y="80" width="447" height="340">
<path d="M473.667 80H27V420H473.667V80Z" fill="white"/>
</mask>
<g mask="url(#mask0_182_83)">
<mask id="mask1_182_83" style="mask-type:luminance" maskUnits="userSpaceOnUse" x="28" y="80" width="273" height="336">
<path d="M28.3334 80.6406H300.333V416H28.3334V80.6406Z" fill="white"/>
</mask>
<g mask="url(#mask1_182_83)">
<mask id="mask2_182_83" style="mask-type:luminance" maskUnits="userSpaceOnUse" x="28" y="80" width="273" height="335">
<path d="M146.245 80.6666L300.188 148.661L182.615 414.859L28.6719 346.865L146.245 80.6666Z" fill="white"/>
</mask>
<g mask="url(#mask2_182_83)">
<mask id="mask3_182_83" style="mask-type:luminance" maskUnits="userSpaceOnUse" x="28" y="80" width="273" height="335">
<path d="M146.245 80.6666L300.188 148.661L182.615 414.859L28.6719 346.865L146.245 80.6666Z" fill="white"/>
</mask>
<g mask="url(#mask3_182_83)">
<mask id="mask4_182_83" style="mask-type:luminance" maskUnits="userSpaceOnUse" x="28" y="80" width="273" height="335">
<path d="M146.245 80.6666L300.188 148.661L182.615 414.859L28.6719 346.865L146.245 80.6666Z" fill="white"/>
</mask>
<g mask="url(#mask4_182_83)">
<path d="M138.963 349.943L137.667 152.115C137.667 152.115 139.625 134.521 157.713 130.849C175.802 127.177 191.453 142.057 191.521 154.479C191.594 166.896 189.797 363.693 189.797 363.693C189.797 363.693 180.667 391.625 157.359 390.167C134.052 388.708 126.672 369.115 125.073 362.406C123.474 355.698 123.62 141.839 123.62 141.839C123.62 141.839 132.724 109.26 166.375 109.12C200.021 108.979 204.891 139.958 204.484 156.49C204.078 173.026 205.807 351.74 205.807 351.74" stroke="white" stroke-width="8" stroke-miterlimit="10" stroke-linecap="round"/>
</g>
</g>
</g>
</g>
<mask id="mask5_182_83" style="mask-type:luminance" maskUnits="userSpaceOnUse" x="201" y="86" width="272" height="334">
<path d="M201.667 86.6666H472.651V419.521H201.667V86.6666Z" fill="white"/>
</mask>
<g mask="url(#mask5_182_83)">
<mask id="mask6_182_83" style="mask-type:luminance" maskUnits="userSpaceOnUse" x="202" y="87" width="271" height="333">
<path d="M319.589 87.2812L472.464 154.802L355.365 419.932L202.484 352.411L319.589 87.2812Z" fill="white"/>
</mask>
<g mask="url(#mask6_182_83)">
<mask id="mask7_182_83" style="mask-type:luminance" maskUnits="userSpaceOnUse" x="201" y="86" width="273" height="334">
<path d="M473.667 86.6666H201.667V420H473.667V86.6666Z" fill="white"/>
</mask>
<g mask="url(#mask7_182_83)">
<mask id="mask8_182_83" style="mask-type:luminance" maskUnits="userSpaceOnUse" x="202" y="87" width="271" height="333">
<path d="M202.255 87.0416H472.334V419.521H202.255V87.0416Z" fill="white"/>
</mask>
<g mask="url(#mask8_182_83)">
<mask id="mask9_182_83" style="mask-type:luminance" maskUnits="userSpaceOnUse" x="202" y="87" width="271" height="333">
<path d="M319.589 87.2812L472.464 154.802L355.365 419.932L202.485 352.411L319.589 87.2812Z" fill="white"/>
</mask>
<g mask="url(#mask9_182_83)">
<mask id="mask10_182_83" style="mask-type:luminance" maskUnits="userSpaceOnUse" x="202" y="86" width="271" height="334">
<path d="M355.235 419.318L202.36 351.797L319.459 86.6666L472.334 154.187L355.235 419.318Z" fill="white"/>
</mask>
<g mask="url(#mask10_182_83)">
<mask id="mask11_182_83" style="mask-type:luminance" maskUnits="userSpaceOnUse" x="202" y="86" width="271" height="334">
<path d="M355.235 419.318L202.36 351.797L319.459 86.6666L472.334 154.187L355.235 419.318Z" fill="white"/>
</mask>
<g mask="url(#mask11_182_83)">
<path d="M362.761 151.239L363.834 348.177C363.834 348.177 361.865 365.698 343.891 369.37C325.917 373.047 310.386 358.25 310.329 345.885C310.271 333.526 312.266 137.614 312.266 137.614C312.266 137.614 321.37 109.797 344.526 111.219C367.677 112.646 374.99 132.146 376.573 138.823C378.157 145.495 377.776 358.396 377.776 358.396C377.776 358.396 368.693 390.838 335.266 391.01C301.834 391.187 297.032 360.354 297.454 343.896C297.875 327.437 296.349 149.526 296.349 149.526" stroke="white" stroke-width="8" stroke-miterlimit="10" stroke-linecap="round"/>
</g>
</g>
</g>
</g>
</g>
</g>
</g>
</g>
<path d="M207.901 351.156L295.464 150.797" stroke="white" stroke-width="8" stroke-linecap="round"/>
<path d="M444.107 293.5V206.7H464.195L495.939 259.896V206.7H514.539V293.5H494.451L462.707 240.304V293.5H444.107ZM579.698 295.112C573.829 295.112 568.311 293.955 563.144 291.64C557.977 289.284 553.431 286.039 549.504 281.906C545.577 277.773 542.498 272.999 540.266 267.584C538.034 262.128 536.918 256.3 536.918 250.1C536.918 243.9 538.034 238.093 540.266 232.678C542.498 227.222 545.577 222.427 549.504 218.294C553.431 214.161 557.977 210.937 563.144 208.622C568.311 206.266 573.829 205.088 579.698 205.088C585.609 205.088 591.147 206.266 596.314 208.622C601.481 210.937 606.027 214.161 609.954 218.294C613.881 222.427 616.939 227.222 619.13 232.678C621.362 238.093 622.478 243.9 622.478 250.1C622.478 256.3 621.362 262.128 619.13 267.584C616.939 272.999 613.881 277.773 609.954 281.906C606.027 286.039 601.481 289.284 596.314 291.64C591.147 293.955 585.609 295.112 579.698 295.112ZM579.698 276.512C583.005 276.512 586.105 275.83 588.998 274.466C591.933 273.061 594.516 271.159 596.748 268.762C598.98 266.323 600.716 263.513 601.956 260.33C603.237 257.147 603.878 253.737 603.878 250.1C603.878 246.463 603.237 243.053 601.956 239.87C600.716 236.687 598.98 233.897 596.748 231.5C594.516 229.061 591.933 227.16 588.998 225.796C586.105 224.391 583.005 223.688 579.698 223.688C576.391 223.688 573.271 224.391 570.336 225.796C567.443 227.16 564.88 229.061 562.648 231.5C560.416 233.897 558.659 236.687 557.378 239.87C556.138 243.053 555.518 246.463 555.518 250.1C555.518 253.737 556.138 257.147 557.378 260.33C558.659 263.513 560.416 266.323 562.648 268.762C564.88 271.159 567.443 273.061 570.336 274.466C573.271 275.83 576.391 276.512 579.698 276.512ZM705.495 206.7V225.3H680.695V293.5H662.095V225.3H637.295V206.7H705.495ZM727.8 293.5V206.7H783.104V225.3H746.4V237.7H774.672V256.3H746.4V274.9H783.104V293.5H727.8ZM804.143 293.5V274.9L849.155 225.3H804.143V206.7H874.327V225.3L829.315 274.9H874.327V293.5H804.143ZM949.782 206.7H971.73L941.598 254.44V293.5H922.998V254.44L892.866 206.7H914.814L932.298 234.228L949.782 206.7Z" fill="white"/>
</svg>
